<?xml version="1.0" encoding="UTF-8"?>
<svg version="1.1" xmlns="http://www.w3.org/2000/svg" width="512" height="512">
<path d="M0 0 C1.87381465 0.0011305 3.74763107 0.00049068 5.6214447 -0.00177002 C10.67025892 -0.0029102 15.71868729 0.02048566 20.76741242 0.04852581 C26.05778652 0.07365624 31.34817101 0.0758906 36.63859558 0.08062744 C46.63971643 0.09302316 56.64066084 0.12579844 66.64170426 0.1660254 C78.03475071 0.21084941 89.4278059 0.23275682 100.82091868 0.25280714 C124.24163121 0.29453428 147.66218752 0.36481973 171.08276367 0.45410156 C171.09085052 1.32947571 171.09893738 2.20484985 171.10726929 3.10675049 C171.18558435 11.4030379 171.27298271 19.69917111 171.37029076 27.99525833 C171.41999141 32.25917634 171.4663211 36.52307267 171.50463867 40.78710938 C171.54182619 44.91101705 171.58827106 49.03473074 171.64082718 53.15847015 C171.65919513 54.72268989 171.67436613 56.28695092 171.68610764 57.85123444 C171.81042363 73.85784181 172.64634774 88.34633583 184.06323242 100.63378906 C194.00315583 109.59317844 205.64885846 111.49981048 218.6003418 111.65942383 C219.65547974 111.67427322 219.65547974 111.67427322 220.73193359 111.68942261 C223.02592764 111.72067102 225.31994229 111.74564774 227.61401367 111.77050781 C229.21684262 111.79110913 230.81966653 111.81210637 232.42248535 111.83348083 C236.61779669 111.88837366 240.81315435 111.93792593 245.00854492 111.98632812 C249.29895088 112.03678434 253.58929051 112.09234382 257.87963867 112.14746094 C266.28062406 112.25464074 274.68166537 112.35617295 283.08276367 112.45410156 C283.17437004 149.08373043 283.2448282 185.71333917 283.28702499 222.34305905 C283.29202766 226.67003109 283.29720497 230.99700291 283.30249023 235.32397461 C283.30353948 236.18537686 283.30458872 237.04677912 283.30566975 237.93428447 C283.3230629 251.87195268 283.35459458 265.80955473 283.39137486 279.74718372 C283.42881463 294.05431971 283.45100594 308.36142111 283.45911765 322.66860408 C283.46459913 331.49301854 283.48189596 340.31724596 283.51442954 349.14160284 C283.53561494 355.19730791 283.54195463 361.25291665 283.53676918 367.30865607 C283.53421363 370.79968136 283.53806037 374.29038038 283.55958557 377.78134727 C283.57954576 381.57440462 283.57467968 385.36666777 283.56378174 389.15974426 C283.5754331 390.25218706 283.58708447 391.34462987 283.59908891 392.47017699 C283.51049688 403.91214023 280.01466186 413.14524188 272.08276367 421.45410156 C262.90854757 430.21209614 252.89711569 433.07036915 240.42515564 432.96203613 C239.30391928 432.9682761 238.18268292 432.97451606 237.02746969 432.98094511 C233.29820516 432.99680537 229.56960056 432.98429759 225.84033203 432.97167969 C223.15544245 432.97710387 220.4705972 432.98408433 217.78572083 432.99291992 C211.26729281 433.01064769 204.74904967 433.00689112 198.2306146 432.99526936 C192.93060416 432.98621335 187.63064531 432.98502037 182.33062935 432.98936462 C181.57455799 432.98997756 180.81848663 432.99059049 180.03950401 432.99122199 C178.50328018 432.99250097 176.96705637 432.99379783 175.43083257 432.99511236 C161.04734831 433.00650113 146.66396625 432.99343086 132.28049875 432.97191089 C119.95306132 432.95403781 107.62577457 432.95714902 95.29833984 432.97558594 C80.96263624 432.99701656 66.62702204 433.00540646 52.29130465 432.99313688 C50.76123052 432.99186276 49.23115638 432.99060528 47.70108223 432.98936462 C46.948368 432.98874752 46.19565377 432.98813042 45.42013003 432.98749462 C40.12924116 432.98404855 34.83840926 432.9898539 29.54752922 432.99928284 C23.09581708 433.01052845 16.64429948 433.00740906 10.19260948 432.98615986 C6.90415946 432.97568414 3.61609826 432.97363944 0.32764053 432.98475647 C-3.24409802 432.99571647 -6.81493081 432.98194113 -10.38661194 432.96203613 C-11.93084409 432.97542046 -11.93084409 432.97542046 -13.50627285 432.98907518 C-23.88530429 432.87718378 -32.95611973 429.11302808 -40.91723633 422.45410156 C-47.89961942 415.14053825 -51.6832778 407.44674614 -52.91723633 397.45410156 C-51.95406494 397.56069092 -51.95406494 397.56069092 -50.97143555 397.66943359 C-12.40029481 401.77245496 23.30918667 394.66879459 54.33276367 370.45410156 C55.92550562 369.13202164 57.50893005 367.79863492 59.08276367 366.45410156 C59.90260742 365.76832031 60.72245117 365.08253906 61.56713867 364.37597656 C80.62027849 347.92637138 94.47734544 324.67006797 101.08276367 300.45410156 C101.2788623 299.76525879 101.47496094 299.07641602 101.67700195 298.36669922 C107.7566819 276.23030118 107.35456489 250.48528497 101.08276367 228.45410156 C100.90084473 227.78717285 100.71892578 227.12024414 100.53149414 226.43310547 C91.60561328 194.42277491 68.94239939 164.90851508 40.1394043 148.3359375 C35.54804537 145.83629836 30.84927431 143.59762114 26.08276367 141.45410156 C25.45756836 141.17050781 24.83237305 140.88691406 24.18823242 140.59472656 C1.03161968 130.25956467 -24.11785871 127.81638368 -49.15014648 130.97827148 C-50.39328613 131.13529541 -51.63642578 131.29231934 -52.91723633 131.45410156 C-53.03342319 118.62306721 -53.1221003 105.79215938 -53.17629719 92.9607048 C-53.20231769 87.00160807 -53.23757788 81.04287301 -53.29443359 75.08398438 C-53.34902232 69.32623014 -53.37871355 63.56882235 -53.39162254 57.81082916 C-53.4008143 55.62131553 -53.4187631 53.43181945 -53.44588661 51.24245453 C-53.61746448 36.81039876 -53.25636558 24.94060834 -43.69067383 13.26269531 C-31.43746085 0.76657723 -16.44985697 -0.14017745 0 0 Z M45.08276367 115.45410156 C43.66234547 118.29493798 43.76824095 120.30887434 44.08276367 123.45410156 C46.31482798 126.30190775 47.63269366 127.30407822 51.08276367 128.45410156 C52.63090874 128.55557589 54.18296065 128.60244014 55.734375 128.61523438 C56.67577835 128.62484192 57.6171817 128.63444946 58.58711243 128.64434814 C59.60274765 128.64859802 60.61838287 128.6528479 61.66479492 128.65722656 C63.23519783 128.66577667 63.23519783 128.66577667 64.83732605 128.67449951 C67.05397532 128.68394923 69.27063863 128.69048338 71.48730469 128.69433594 C74.87158857 128.70403372 78.25526316 128.73505469 81.6394043 128.76660156 C83.79369757 128.77313255 85.94799518 128.77838264 88.10229492 128.78222656 C89.61663872 128.80074677 89.61663872 128.80074677 91.16157532 128.81964111 C96.53700497 128.80267521 100.47462731 128.56564704 105.08276367 125.45410156 C106.50318188 122.61326515 106.39728639 120.59932879 106.08276367 117.45410156 C103.85069936 114.60629537 102.53283369 113.6041249 99.08276367 112.45410156 C97.5346186 112.35262723 95.9825667 112.30576299 94.43115234 112.29296875 C93.01904732 112.27855743 93.01904732 112.27855743 91.57841492 112.26385498 C90.56277969 112.2596051 89.54714447 112.25535522 88.50073242 112.25097656 C86.93032951 112.24242645 86.93032951 112.24242645 85.32820129 112.23370361 C83.11155203 112.2242539 80.89488872 112.21771975 78.67822266 112.21386719 C75.29393877 112.2041694 71.91026419 112.17314843 68.52612305 112.14160156 C66.37182978 112.13507058 64.21753216 112.12982048 62.06323242 112.12597656 C61.05366989 112.11362976 60.04410736 112.10128296 59.00395203 112.08856201 C53.62852238 112.10552791 49.69090003 112.34255608 45.08276367 115.45410156 Z M125.08276367 179.45410156 C123.66234547 182.29493798 123.76824095 184.30887434 124.08276367 187.45410156 C126.31482798 190.30190775 127.63269366 191.30407822 131.08276367 192.45410156 C134.1094649 192.5613107 137.11347444 192.61137787 140.140625 192.61523438 C141.53133965 192.62268173 141.53133965 192.62268173 142.95014954 192.63027954 C146.02170551 192.64490147 149.09320984 192.65170334 152.16479492 192.65722656 C154.29847719 192.66297812 156.43215944 192.66873585 158.56584167 192.67449951 C163.0422693 192.68500967 167.51867896 192.6908522 171.99511719 192.69433594 C177.72847374 192.69981978 183.46159271 192.72384553 189.19487476 192.75230789 C193.60353792 192.77094048 198.01214392 192.77614022 202.42084312 192.77767181 C204.53433213 192.78069761 206.64782015 192.78872364 208.76127052 192.80185699 C211.7199366 192.81892974 214.67802327 192.81703409 217.63671875 192.81054688 C218.50810486 192.81976166 219.37949097 192.82897644 220.27728271 192.83847046 C225.27993687 192.80414555 228.75768779 192.2581276 233.08276367 189.45410156 C234.50318188 186.61326515 234.39728639 184.59932879 234.08276367 181.45410156 C231.85069936 178.60629537 230.53283369 177.6041249 227.08276367 176.45410156 C224.05606244 176.34689243 221.0520529 176.29682526 218.02490234 176.29296875 C216.6341877 176.28552139 216.6341877 176.28552139 215.21537781 176.27792358 C212.14382183 176.26330166 209.07231751 176.25649979 206.00073242 176.25097656 C203.86705015 176.24522501 201.7333679 176.23946727 199.59968567 176.23370361 C195.12325805 176.22319345 190.64684838 176.21735092 186.17041016 176.21386719 C180.4370536 176.20838335 174.70393464 176.1843576 168.97065258 176.15589523 C164.56198943 176.13726264 160.15338342 176.13206291 155.74468422 176.13053131 C153.63119521 176.12750552 151.51770719 176.11947948 149.40425682 176.10634613 C146.44559074 176.08927339 143.48750408 176.09116904 140.52880859 176.09765625 C139.65742249 176.08844147 138.78603638 176.07922668 137.88824463 176.06973267 C132.88559047 176.10405758 129.40783956 176.65007552 125.08276367 179.45410156 Z M141.08276367 243.45410156 C139.66234547 246.29493798 139.76824095 248.30887434 140.08276367 251.45410156 C142.31482798 254.30190775 143.63269366 255.30407822 147.08276367 256.45410156 C149.62134767 256.56028883 152.13288491 256.61133488 154.671875 256.61523438 C155.82850395 256.62268173 155.82850395 256.62268173 157.00849915 256.63027954 C159.56060681 256.64488963 162.1126523 256.6517015 164.66479492 256.65722656 C166.43975323 256.66297929 168.21471152 256.66873701 169.9896698 256.67449951 C173.71284271 256.68500644 177.43599404 256.69085102 181.15917969 256.69433594 C185.92401095 256.69981777 190.68855604 256.72384041 195.45329762 256.75230789 C199.12079189 256.77095605 202.78821756 256.77614105 206.45575523 256.77767181 C208.21198782 256.78069433 209.96821931 256.78870931 211.72440529 256.80185699 C214.18497947 256.81896201 216.6448588 256.81702649 219.10546875 256.81054688 C219.82724304 256.81976166 220.54901733 256.82897644 221.29266357 256.83847046 C225.9430835 256.8002176 229.13788404 255.92007099 233.08276367 253.45410156 C234.50318188 250.61326515 234.39728639 248.59932879 234.08276367 245.45410156 C231.85069936 242.60629537 230.53283369 241.6041249 227.08276367 240.45410156 C224.54417967 240.3479143 222.03264243 240.29686824 219.49365234 240.29296875 C218.72256638 240.28800385 217.95148041 240.28303894 217.1570282 240.27792358 C214.60492053 240.26331349 212.05287504 240.25650163 209.50073242 240.25097656 C207.72577411 240.24522384 205.95081582 240.23946612 204.17585754 240.23370361 C200.45268464 240.22319668 196.7295333 240.21735211 193.00634766 240.21386719 C188.24151639 240.20838535 183.4769713 240.18436272 178.71222973 240.15589523 C175.04473545 240.13724708 171.37730979 240.13206208 167.70977211 240.13053131 C165.95353952 240.1275088 164.19730803 240.11949382 162.44112206 240.10634613 C159.98054787 240.08924111 157.52066854 240.09117663 155.06005859 240.09765625 C154.3382843 240.08844147 153.61651001 240.07922668 152.87286377 240.06973267 C148.22244385 240.10798552 145.0276433 240.98813214 141.08276367 243.45410156 Z M125.08276367 307.45410156 C123.66234547 310.29493798 123.76824095 312.30887434 124.08276367 315.45410156 C126.31482798 318.30190775 127.63269366 319.30407822 131.08276367 320.45410156 C134.1094649 320.5613107 137.11347444 320.61137787 140.140625 320.61523438 C141.53133965 320.62268173 141.53133965 320.62268173 142.95014954 320.63027954 C146.02170551 320.64490147 149.09320984 320.65170334 152.16479492 320.65722656 C154.29847719 320.66297812 156.43215944 320.66873585 158.56584167 320.67449951 C163.0422693 320.68500967 167.51867896 320.6908522 171.99511719 320.69433594 C177.72847374 320.69981978 183.46159271 320.72384553 189.19487476 320.75230789 C193.60353792 320.77094048 198.01214392 320.77614022 202.42084312 320.77767181 C204.53433213 320.78069761 206.64782015 320.78872364 208.76127052 320.80185699 C211.7199366 320.81892974 214.67802327 320.81703409 217.63671875 320.81054688 C218.50810486 320.81976166 219.37949097 320.82897644 220.27728271 320.83847046 C225.27993687 320.80414555 228.75768779 320.2581276 233.08276367 317.45410156 C234.50318188 314.61326515 234.39728639 312.59932879 234.08276367 309.45410156 C231.85069936 306.60629537 230.53283369 305.6041249 227.08276367 304.45410156 C224.05606244 304.34689243 221.0520529 304.29682526 218.02490234 304.29296875 C216.6341877 304.28552139 216.6341877 304.28552139 215.21537781 304.27792358 C212.14382183 304.26330166 209.07231751 304.25649979 206.00073242 304.25097656 C203.86705015 304.24522501 201.7333679 304.23946727 199.59968567 304.23370361 C195.12325805 304.22319345 190.64684838 304.21735092 186.17041016 304.21386719 C180.4370536 304.20838335 174.70393464 304.1843576 168.97065258 304.15589523 C164.56198943 304.13726264 160.15338342 304.13206291 155.74468422 304.13053131 C153.63119521 304.12750552 151.51770719 304.11947948 149.40425682 304.10634613 C146.44559074 304.08927339 143.48750408 304.09116904 140.52880859 304.09765625 C139.65742249 304.08844147 138.78603638 304.07922668 137.88824463 304.06973267 C132.88559047 304.10405758 129.40783956 304.65007552 125.08276367 307.45410156 Z " fill="#000000" transform="translate(188.917236328125,39.5458984375)"/>
<path d="M0 0 C3.26701612 2.66358727 6.39330111 5.45632415 9.50390625 8.30078125 C10.70273437 9.37585938 10.70273437 9.37585938 11.92578125 10.47265625 C23.25289034 21.15709249 31.22417267 34.17323423 37.50390625 48.30078125 C38.22707031 49.89986328 38.22707031 49.89986328 38.96484375 51.53125 C50.78051581 79.78144774 49.75735979 113.27799334 38.81640625 141.55078125 C32.90163585 155.93577959 24.97055595 167.85479591 14.50390625 179.30078125 C13.7871875 180.1 13.07046875 180.89921875 12.33203125 181.72265625 C1.64759501 193.04976534 -11.36854673 201.02104767 -25.49609375 207.30078125 C-26.56214844 207.78289062 -27.62820312 208.265 -28.7265625 208.76171875 C-56.97676024 220.57739081 -90.47330584 219.55423479 -118.74609375 208.61328125 C-133.13109209 202.69851085 -145.05010841 194.76743095 -156.49609375 184.30078125 C-157.2953125 183.5840625 -158.09453125 182.86734375 -158.91796875 182.12890625 C-170.24507784 171.44447001 -178.21636017 158.42832827 -184.49609375 144.30078125 C-184.97820312 143.23472656 -185.4603125 142.16867187 -185.95703125 141.0703125 C-197.77270331 112.82011476 -196.74954729 79.32356916 -185.80859375 51.05078125 C-179.89382335 36.66578291 -171.96274345 24.74676659 -161.49609375 13.30078125 C-160.779375 12.5015625 -160.06265625 11.70234375 -159.32421875 10.87890625 C-148.63978251 -0.44820284 -135.62364077 -8.41948517 -121.49609375 -14.69921875 C-120.43003906 -15.18132812 -119.36398438 -15.6634375 -118.265625 -16.16015625 C-80.20172443 -32.08041885 -32.37806739 -25.51961434 0 0 Z M-78.80859375 43.11328125 C-81.2678409 46.30119422 -81.61680471 48.64382636 -81.36816406 52.53076172 C-79.18589448 92.1712724 -79.18589448 92.1712724 -87.19921875 101.94921875 C-91.36740543 106.5899535 -96.28616247 110.43308746 -101.47070312 113.87597656 C-103.61632978 115.1460562 -103.61632978 115.1460562 -104.49609375 117.30078125 C-104.88541573 120.88254345 -104.93206093 122.66359846 -102.87109375 125.67578125 C-100.57148538 127.45123528 -100.57148538 127.45123528 -97.74609375 127.98828125 C-89.50478501 126.24492748 -82.41819808 116.43687872 -76.62109375 110.67578125 C-75.76773438 109.84304688 -74.914375 109.0103125 -74.03515625 108.15234375 C-73.22046875 107.3428125 -72.40578125 106.53328125 -71.56640625 105.69921875 C-70.83180176 104.97395996 -70.09719727 104.24870117 -69.34033203 103.50146484 C-66.22212606 99.78058735 -65.24829175 96.22233522 -65.22143555 91.42211914 C-65.21190353 90.48086685 -65.20237152 89.53961456 -65.19255066 88.56983948 C-65.19346207 87.56452682 -65.19437347 86.55921417 -65.1953125 85.5234375 C-65.18888481 83.95727943 -65.18888481 83.95727943 -65.18232727 82.35948181 C-65.17659292 80.15478235 -65.17607711 77.95006397 -65.18041992 75.74536133 C-65.18357924 72.37873963 -65.16011106 69.01299747 -65.13476562 65.64648438 C-65.13249243 63.50130319 -65.13178923 61.35611965 -65.1328125 59.2109375 C-65.12360275 58.20764908 -65.11439301 57.20436066 -65.10490417 56.17066956 C-65.14021821 50.8163829 -65.40536016 46.8928494 -68.49609375 42.30078125 C-72.29140854 40.40312386 -75.4693134 40.49600746 -78.80859375 43.11328125 Z " fill="#000000" transform="translate(233.49609375,207.69921875)"/>
<path d="M0 0 C7.7886506 3.54507442 13.78110083 10.63362829 19.74536133 16.6159668 C20.47322845 17.3420816 21.20109558 18.06819641 21.95101929 18.8163147 C24.33052652 21.19145866 26.70640223 23.57019628 29.08203125 25.94921875 C30.744783 27.61129617 32.40768312 29.27322518 34.07072449 30.93501282 C37.54283602 34.40565512 41.013145 37.87808705 44.48217773 41.35180664 C48.92858631 45.80392987 53.37949331 50.25152462 57.8317461 54.69780254 C61.26073418 58.12317927 64.68733967 61.55093143 68.11322594 64.97941017 C69.75394991 66.6208009 71.39541615 68.26145001 73.03763771 69.90134239 C75.32805674 72.18922358 77.61524875 74.4802828 79.90161133 76.7722168 C80.57956253 77.44814377 81.25751373 78.12407074 81.95600891 78.82048035 C82.57963318 79.44692444 83.20325745 80.07336853 83.84577942 80.71879578 C84.38569928 81.25909266 84.92561914 81.79938955 85.48190022 82.35605907 C90 87.24868156 90 87.24868156 90 90 C80.62021468 90.09290462 71.24058909 90.1638683 61.86044312 90.20724869 C57.50428959 90.22807492 53.14845213 90.25630099 48.79248047 90.30175781 C44.58439043 90.34539387 40.37660337 90.3691744 36.16830444 90.37950897 C34.56720209 90.38686863 32.9661153 90.4012402 31.36514282 90.42292023 C14.30031742 90.64470325 14.30031742 90.64470325 6.7578125 84.03515625 C6.21898437 83.38417969 5.68015625 82.73320312 5.125 82.0625 C4.57070313 81.41410156 4.01640625 80.76570313 3.4453125 80.09765625 C0.20161746 75.38991507 -0.24661639 71.39544548 -0.22705078 65.73120117 C-0.22734283 65.01846039 -0.22763489 64.3057196 -0.22793579 63.57138062 C-0.22654857 61.22845044 -0.21101636 58.88584299 -0.1953125 56.54296875 C-0.1915802 54.91343866 -0.18873425 53.28390631 -0.18673706 51.65437317 C-0.17911767 47.37506871 -0.1594838 43.095901 -0.1373291 38.81665039 C-0.11683411 34.44614512 -0.10772754 30.07561765 -0.09765625 25.70507812 C-0.07623625 17.13665615 -0.04212085 8.56834511 0 0 Z " fill="#000000" transform="translate(376,46)"/>
</svg>
