<?xml version="1.0" encoding="UTF-8"?>
<!DOCTYPE svg PUBLIC "-//W3C//DTD SVG 1.1//EN" "http://www.w3.org/Graphics/SVG/1.1/DTD/svg11.dtd">
<svg xmlns="http://www.w3.org/2000/svg" version="1.1" width="512px" height="512px" style="shape-rendering:geometricPrecision; text-rendering:geometricPrecision; image-rendering:optimizeQuality; fill-rule:evenodd; clip-rule:evenodd" xmlns:xlink="http://www.w3.org/1999/xlink">
<g><path style="opacity:0.972" fill="#82c9e8" d="M 241.5,-0.5 C 250.833,-0.5 260.167,-0.5 269.5,-0.5C 324.558,11.2325 354.558,45.2325 359.5,101.5C 404.471,96.3929 436.637,114.06 456,154.5C 464.01,175.675 464.51,197.008 457.5,218.5C 486.862,222.486 504.862,238.819 511.5,267.5C 511.5,274.167 511.5,280.833 511.5,287.5C 505.872,311.963 490.872,327.463 466.5,334C 396.03,335.157 325.53,335.657 255,335.5C 184.47,335.657 113.97,335.157 43.5,334C 19.6957,327.032 5.029,311.532 -0.5,287.5C -0.5,280.167 -0.5,272.833 -0.5,265.5C 6.87931,237.796 24.8793,222.129 53.5,218.5C 41.0895,176.94 51.7562,142.773 85.5,116C 105.589,102.814 127.589,97.9808 151.5,101.5C 154.483,53.3273 178.483,20.8273 223.5,4C 229.553,2.15331 235.553,0.653314 241.5,-0.5 Z"/></g>
<g><path style="opacity:1" fill="#c2ecfe" d="M 243.5,6.5 C 288.631,4.30635 321.797,22.973 343,62.5C 348.927,77.9394 352.427,93.7728 353.5,110C 387.288,103.373 415.455,112.873 438,138.5C 451.69,156.582 457.024,176.915 454,199.5C 451.819,207.888 449.819,216.222 448,224.5C 465.846,224.781 480.846,231.448 493,244.5C 510.019,270.063 507.852,293.896 486.5,316C 479.993,321.253 472.66,324.92 464.5,327C 325.167,327.667 185.833,327.667 46.5,327C 16.2472,317.008 3.41383,296.175 8,264.5C 16.4678,239.367 33.9678,226.534 60.5,226C 61.4162,225.626 62.2496,225.126 63,224.5C 60.8689,216.305 58.8689,207.971 57,199.5C 53.0922,168.54 63.2589,143.373 87.5,124C 108.723,109.483 132.056,104.816 157.5,110C 157.959,68.741 175.959,37.741 211.5,17C 221.724,11.758 232.391,8.258 243.5,6.5 Z"/></g>
<g><path style="opacity:1" fill="#83cae8" d="M 239.5,31.5 C 244.675,30.5071 246.509,32.5071 245,37.5C 214.9,45.9331 195.9,65.2664 188,95.5C 184.509,98.4456 182.342,97.6122 181.5,93C 189.705,61.9624 209.039,41.4624 239.5,31.5 Z"/></g>
<g><path style="opacity:1" fill="#85cbe9" d="M 153.5,238.5 C 155.527,238.338 157.527,238.505 159.5,239C 161.829,241.829 164.829,242.996 168.5,242.5C 170.167,242.333 171.833,242.167 173.5,242C 175.983,240.674 178.483,239.507 181,238.5C 183.259,238.261 184.426,239.261 184.5,241.5C 183.394,244.441 181.394,246.608 178.5,248C 170.549,251.674 162.882,251.008 155.5,246C 152.853,243.91 152.186,241.41 153.5,238.5 Z"/></g>
<g><path style="opacity:1" fill="#85cbe9" d="M 329.5,238.5 C 331.527,238.338 333.527,238.505 335.5,239C 337.829,241.829 340.829,242.996 344.5,242.5C 346.167,242.333 347.833,242.167 349.5,242C 351.983,240.674 354.483,239.507 357,238.5C 359.259,238.261 360.426,239.261 360.5,241.5C 357.303,247.274 352.303,250.274 345.5,250.5C 338.151,250.33 332.485,247.33 328.5,241.5C 328.685,240.416 329.018,239.416 329.5,238.5 Z"/></g>
<g><path style="opacity:1" fill="#85c8e6" d="M 161.5,257.5 C 174.685,255.358 185.852,259.024 195,268.5C 201.121,284.753 195.621,295.253 178.5,300C 165.093,303.307 153.927,299.807 145,289.5C 139.083,279.13 140.916,270.297 150.5,263C 154.017,260.674 157.683,258.84 161.5,257.5 Z"/></g>
<g><path style="opacity:1" fill="#84c8e7" d="M 335.5,257.5 C 351.464,254.64 363.631,259.973 372,273.5C 373.451,288.073 366.951,296.907 352.5,300C 339.093,303.307 327.927,299.807 319,289.5C 314.451,279.813 315.951,271.313 323.5,264C 327.434,261.536 331.434,259.369 335.5,257.5 Z"/></g>
<g><path style="opacity:1" fill="#f08c9a" d="M 162.5,264.5 C 170.704,263.462 178.371,264.962 185.5,269C 193.646,276.311 193.313,283.311 184.5,290C 174.792,294.583 165.126,294.583 155.5,290C 147.939,283.299 147.605,276.299 154.5,269C 157.099,267.205 159.766,265.705 162.5,264.5 Z"/></g>
<g><path style="opacity:1" fill="#ef8c9a" d="M 338.5,264.5 C 345.514,263.805 352.181,264.972 358.5,268C 366.31,273.361 367.476,279.861 362,287.5C 351.719,294.529 340.885,295.362 329.5,290C 321.939,283.299 321.605,276.299 328.5,269C 331.815,267.17 335.149,265.67 338.5,264.5 Z"/></g>
<g><path style="opacity:1" fill="#83cae9" d="M 229.5,267.5 C 231.655,267.372 233.655,267.872 235.5,269C 243.97,276.953 253.97,279.619 265.5,277C 271.495,274.338 277.162,271.171 282.5,267.5C 284.609,267.775 285.942,268.942 286.5,271C 281.553,277.817 274.887,282.151 266.5,284C 252.933,286.916 240.933,283.916 230.5,275C 228.285,272.758 227.952,270.258 229.5,267.5 Z"/></g>
<g><path style="opacity:0.989" fill="#80c8e7" d="M 333.5,365.5 C 357.561,365.74 372.728,377.406 379,400.5C 380.176,434.988 363.676,454.488 329.5,459C 227.167,459.667 124.833,459.667 22.5,459C 19.4466,457.419 18.78,455.086 20.5,452C 126.187,451.981 231.854,451.314 337.5,450C 358.392,443.772 369.725,429.772 371.5,408C 370.78,391.275 362.446,380.275 346.5,375C 331.087,371.132 319.921,376.299 313,390.5C 308.723,408.109 315.556,418.276 333.5,421C 336.764,425.401 335.597,427.901 330,428.5C 306.023,422.551 298.356,407.884 307,384.5C 312.868,373.834 321.702,367.501 333.5,365.5 Z"/></g>
<g><path style="opacity:0.99" fill="#80c8e7" d="M 449.5,511.5 C 340.833,511.5 232.167,511.5 123.5,511.5C 121.712,508.255 122.378,505.755 125.5,504C 233.5,503.667 341.5,503.333 449.5,503C 473.977,495.554 485.144,479.054 483,453.5C 475.739,431.619 460.905,423.452 438.5,429C 424.437,437.523 420.603,449.357 427,464.5C 432.304,470.494 438.97,473.827 447,474.5C 448.418,478.442 447.084,480.775 443,481.5C 421.739,477.557 413.072,464.89 417,443.5C 426.525,420.66 443.025,413.494 466.5,422C 486.095,432.293 494.262,448.46 491,470.5C 485.209,492.458 471.376,506.125 449.5,511.5 Z"/></g>
<g><path style="opacity:0.996" fill="#80c8e7" d="M 180.5,424.5 C 214.502,424.333 248.502,424.5 282.5,425C 285.306,426.305 286.14,428.472 285,431.5C 284.25,432.126 283.416,432.626 282.5,433C 248.5,433.667 214.5,433.667 180.5,433C 178.354,432.521 177.354,431.188 177.5,429C 177.557,426.791 178.557,425.291 180.5,424.5 Z"/></g>
<g><path style="opacity:0.978" fill="#80c8e7" d="M 52.5,478.5 C 135.834,478.333 219.167,478.5 302.5,479C 305.288,481.763 304.955,484.097 301.5,486C 218.833,486.667 136.167,486.667 53.5,486C 50.0547,483.852 49.7214,481.352 52.5,478.5 Z"/></g>
</svg>
