<?xml version="1.0" encoding="UTF-8"?>
<!DOCTYPE svg PUBLIC "-//W3C//DTD SVG 1.1//EN" "http://www.w3.org/Graphics/SVG/1.1/DTD/svg11.dtd">
<svg xmlns="http://www.w3.org/2000/svg" version="1.1" width="512px" height="512px" style="shape-rendering:geometricPrecision; text-rendering:geometricPrecision; image-rendering:optimizeQuality; fill-rule:evenodd; clip-rule:evenodd" xmlns:xlink="http://www.w3.org/1999/xlink">
<g><path style="opacity:0.95" fill="#000000" d="M 178.5,34.5 C 188.125,32.4161 194.958,35.7494 199,44.5C 199.667,57.8333 199.667,71.1667 199,84.5C 193.424,95.271 185.258,97.771 174.5,92C 171.75,89.3304 169.917,86.1637 169,82.5C 168.333,70.5 168.333,58.5 169,46.5C 170.194,40.8195 173.36,36.8195 178.5,34.5 Z"/></g>
<g><path style="opacity:0.967" fill="#000000" d="M 511.5,356.5 C 511.5,366.5 511.5,376.5 511.5,386.5C 501.226,436.607 470.893,466.44 420.5,476C 339.833,476.667 259.167,476.667 178.5,476C 138.709,468.209 114.875,444.375 107,404.5C 104.115,384.091 107.948,365.091 118.5,347.5C 75.4212,316.323 57.9212,274.323 66,221.5C 75.262,181.467 98.4286,152.634 135.5,135C 179.882,117.627 221.216,122.96 259.5,151C 274.527,163.389 286.194,178.389 294.5,196C 343.536,197.996 378.202,221.163 398.5,265.5C 447.661,264.89 482.828,286.557 504,330.5C 507.149,339.117 509.649,347.783 511.5,356.5 Z M 182.5,155.5 C 216.557,156.856 242.89,171.689 261.5,200C 211.318,218.347 184.651,254.18 181.5,307.5C 166.266,308.91 152.6,314.243 140.5,323.5C 99.6809,296.497 86.5143,259.497 101,212.5C 117.093,177.561 144.259,158.561 182.5,155.5 Z M 292.5,226.5 C 335.859,229.349 363.692,251.682 376,293.5C 379.54,297.126 383.874,298.793 389,298.5C 420.172,292.999 445.839,302.333 466,326.5C 481.011,347.639 484.678,370.639 477,395.5C 466.345,422.491 446.845,438.991 418.5,445C 342.837,446.318 267.17,446.651 191.5,446C 164.732,444.57 147.232,431.07 139,405.5C 133.664,376.338 144.164,355.172 170.5,342C 179.232,338.432 188.232,337.265 197.5,338.5C 207.175,337.491 212.509,332.158 213.5,322.5C 209.24,278.29 227.573,247.79 268.5,231C 276.512,228.762 284.512,227.262 292.5,226.5 Z"/></g>
<g><path style="opacity:0.946" fill="#000000" d="M -0.5,153.5 C -0.5,149.5 -0.5,145.5 -0.5,141.5C 4.08125,133.222 11.0812,130.389 20.5,133C 30.9971,138.748 41.3304,144.748 51.5,151C 57.3237,157.795 57.8237,164.962 53,172.5C 47.6196,177.721 41.4529,179.221 34.5,177C 24.336,171.419 14.336,165.586 4.5,159.5C 2.78057,157.456 1.1139,155.456 -0.5,153.5 Z"/></g>
<g><path style="opacity:0.947" fill="#000000" d="M 348.5,132.5 C 366.223,131.715 372.39,139.715 367,156.5C 356.418,164.212 345.251,171.045 333.5,177C 324.093,179.633 317.26,176.467 313,167.5C 311.058,158.886 313.892,152.386 321.5,148C 330.563,142.806 339.563,137.64 348.5,132.5 Z"/></g>
<g><path style="opacity:0.944" fill="#000000" d="M -0.5,349.5 C -0.5,345.5 -0.5,341.5 -0.5,337.5C 1.25495,334.515 3.58828,332.015 6.5,330C 14.5,325.333 22.5,320.667 30.5,316C 38.6287,311.073 46.1287,311.906 53,318.5C 57.7631,326.023 57.2631,333.19 51.5,340C 41.3304,346.252 30.9971,352.252 20.5,358C 11.1847,360.296 4.18467,357.463 -0.5,349.5 Z"/></g>
</svg>
