<?xml version="1.0" encoding="UTF-8"?>
<svg version="1.1" xmlns="http://www.w3.org/2000/svg" width="512" height="512">
<path d="M0 0 C0.68181335 0.00021149 1.36362671 0.00042297 2.06610107 0.00064087 C13.12609128 0.03481764 23.3619541 0.99438385 33.9375 4.375 C35.04996094 4.725625 36.16242188 5.07625 37.30859375 5.4375 C51.23422268 10.34641203 63.96758543 17.50920021 74.9375 27.375 C75.6903125 27.98601562 76.443125 28.59703125 77.21875 29.2265625 C86.78188915 37.13972342 93.97265519 47.20352963 100.0625 57.9375 C100.44083984 58.60394531 100.81917969 59.27039063 101.20898438 59.95703125 C103.10789635 63.4366018 104.26455558 66.48830927 104.9375 70.375 C105.84121338 70.3435791 105.84121338 70.3435791 106.76318359 70.31152344 C127.04905653 69.70321675 143.77038359 72.1899357 161.9375 81.375 C162.99582031 81.90996094 164.05414063 82.44492187 165.14453125 82.99609375 C189.6886878 96.41013475 206.8927462 119.76424616 214.75 146.3125 C220.32509458 165.41565261 220.30667994 188.43507018 213.9375 207.375 C213.586875 208.4784375 213.23625 209.581875 212.875 210.71875 C203.72982368 236.88411557 184.97831848 257.27355758 160.61328125 270.12890625 C146.60445754 276.87139197 132.08970465 280.69603431 116.53511047 280.64242554 C115.05561654 280.64922221 115.05561654 280.64922221 113.54623383 280.65615618 C110.27336799 280.66871764 107.00067033 280.66718517 103.7277832 280.66552734 C101.36791268 280.67151776 99.00804412 280.67832449 96.6481781 280.68588257 C90.25951863 280.70349777 83.87091279 280.70823607 77.48223138 280.70951414 C73.48442359 280.71093887 69.48662486 280.71508769 65.48882103 280.72050858 C52.24317256 280.73810062 38.99755636 280.74735066 25.75189612 280.74584763 C25.0394662 280.74576772 24.32703628 280.7456878 23.59301758 280.74560547 C22.87970629 280.74552371 22.166395 280.74544195 21.43146821 280.74535771 C9.88077117 280.74454543 -1.66979529 280.76367374 -13.2204546 280.7918822 C-25.11313986 280.82069411 -37.00576161 280.83441794 -48.89848262 280.83269465 C-55.56224306 280.8320336 -62.22588571 280.83779588 -68.88962364 280.85905075 C-75.16145984 280.87851071 -81.43300822 280.87850453 -87.70485497 280.86401749 C-89.99604211 280.86193789 -92.28724765 280.8665791 -94.57840347 280.8787384 C-121.2720603 281.01113666 -143.45533685 275.0137851 -163.3984375 256.19140625 C-181.09968256 237.47791991 -188.14972024 214.84286009 -187.44921875 189.39453125 C-187.06406569 181.63436533 -185.61112687 174.72005909 -183.0625 167.375 C-182.70027344 166.31410156 -182.33804688 165.25320313 -181.96484375 164.16015625 C-174.19002509 143.68207457 -157.67216917 126.73760589 -137.86279297 117.70166016 C-129.88528189 114.27396708 -120.8160819 110.96209519 -112.0625 111.375 C-112.10890625 110.65699219 -112.1553125 109.93898438 -112.203125 109.19921875 C-113.17281 81.3900381 -100.27380964 54.96840868 -81.8359375 34.796875 C-60.28053648 11.94901362 -31.32074445 -0.04028762 0 0 Z " fill="#000000" transform="translate(294.0625,196.625)"/>
<path d="M0 0 C1.01356567 0.00648056 1.01356567 0.00648056 2.04760742 0.01309204 C12.19671184 0.08903955 21.76282168 0.60086782 31.5625 3.375 C32.75488281 3.69210938 33.94726562 4.00921875 35.17578125 4.3359375 C55.73816167 10.45905395 74.95878577 22.67719643 89.5625 38.375 C90.8984375 41.203125 90.8984375 41.203125 91.5625 43.375 C90.97984375 43.49504395 90.3971875 43.61508789 89.796875 43.73876953 C48.16725544 52.43615271 14.57481467 72.44004153 -9.66992188 108.19238281 C-17.4984109 120.27002498 -23.2781192 134.21748024 -26.15942383 148.29516602 C-28.28694722 158.43704936 -28.28694722 158.43704936 -31.953125 161.42578125 C-35.0782918 162.68157472 -38.18300958 163.51532328 -41.4375 164.375 C-50.5979241 168.60288805 -58.56725401 174.10971354 -66.4375 180.375 C-67.04335937 180.83777344 -67.64921875 181.30054688 -68.2734375 181.77734375 C-75.47813017 187.4381737 -80.92741162 195.13986875 -86.4375 202.375 C-99.28500573 197.05977086 -107.46615932 176.54574231 -112.609375 164.28125 C-123.86928448 135.53453723 -123.4579989 101.88299214 -111.42578125 73.46875 C-105.14042776 59.36830403 -97.14425253 47.55052453 -86.4375 36.375 C-85.75300781 35.62734375 -85.06851563 34.8796875 -84.36328125 34.109375 C-72.12037523 21.16493463 -56.23072236 11.77580705 -39.4375 6.0625 C-38.42574707 5.71687012 -38.42574707 5.71687012 -37.39355469 5.36425781 C-25.01019591 1.40692917 -12.96074789 -0.14006805 0 0 Z " fill="#000000" transform="translate(184.4375,125.625)"/>
<path d="M0 0 C4.03449965 3.57603378 6.52930307 7.25623445 6.91015625 12.74609375 C6.54341117 18.05047992 4.97836614 21.13719817 1.75 25.4375 C-1.01147461 27.44799805 -1.01147461 27.44799805 -4.15234375 29.19921875 C-5.28994141 29.84310547 -6.42753906 30.48699219 -7.59960938 31.15039062 C-8.79535454 31.80899039 -9.99132009 32.46719018 -11.1875 33.125 C-12.38029519 33.79360717 -13.57236011 34.46351889 -14.76367188 35.13476562 C-16.95846289 36.3681711 -19.15659721 37.59566016 -21.35913086 38.81518555 C-23.24606913 39.87410834 -25.11039531 40.97468215 -26.94580078 42.12060547 C-31.34546615 44.63509954 -36.34905036 44.03517679 -41.25 43.4375 C-45.86581142 41.25106301 -47.97864085 38.94150196 -50.25 34.4375 C-50.68359375 31.53515625 -50.68359375 31.53515625 -50.6875 28.5 C-50.70683594 27.50097656 -50.72617187 26.50195312 -50.74609375 25.47265625 C-50.11222737 21.59459184 -49.03586757 19.14911152 -46.25 16.4375 C-42.4595534 13.79405853 -38.47517119 11.55431147 -34.4375 9.3125 C-33.36951172 8.70535156 -32.30152344 8.09820312 -31.20117188 7.47265625 C-29.13953992 6.30223069 -27.07448834 5.13780243 -25.00561523 3.98022461 C-22.69764146 2.688111 -20.40068763 1.37990056 -18.109375 0.05859375 C-11.94418118 -3.43670056 -6.33788021 -3.04705779 0 0 Z " fill="#000000" transform="translate(50.25,315.5625)"/>
<path d="M0 0 C4.1730967 1.57264049 7.83965613 3.72102375 11.625 6.0625 C12.5840625 6.62388672 13.543125 7.18527344 14.53125 7.76367188 C33.92028277 19.25784781 33.92028277 19.25784781 35.734375 25.95703125 C36.38636038 30.97156587 35.64733964 34.77467853 33.25 39.3125 C30.40455259 42.71122885 27.88304041 44.32001318 23.75 45.8125 C14.88572624 46.4168823 7.85745088 42.08184732 0.48730469 37.71508789 C-1.25259358 36.68596594 -3.00389406 35.67883025 -4.7578125 34.67382812 C-11.30282657 30.853384 -16.72320187 27.4151972 -21 21 C-21.68923878 15.44601777 -21.7242151 10.52889855 -19.3125 5.4375 C-13.61265284 -0.570447 -7.96031682 -1.18765708 0 0 Z " fill="#000000" transform="translate(21,133)"/>
<path d="M0 0 C4.004793 2.0023965 6.6587028 4.17998877 9 8 C10.63968743 12.91906228 10.55903081 17.25302871 9 22.125 C3.95927838 29.37103733 -4.91900254 33.48870177 -12.4375 37.75 C-13.42298828 38.32621094 -14.40847656 38.90242188 -15.42382812 39.49609375 C-28.35318026 46.84757429 -28.35318026 46.84757429 -35.25537109 45.58862305 C-40.40771104 44.06814672 -42.96600673 41.32114194 -46 37 C-47.86086863 33.27826273 -47.42624401 29.06185464 -47 25 C-43.00022039 15.95702001 -31.29165519 11.33121864 -23.0625 6.6875 C-22.11826172 6.15060547 -21.17402344 5.61371094 -20.20117188 5.06054688 C-12.96660094 0.95387919 -8.50258814 -0.87667929 0 0 Z " fill="#000000" transform="translate(360,133)"/>
<path d="M0 0 C4.7344316 1.91391916 7.72684393 5.45368786 10 10 C10.13587125 12.90764482 10.21277951 15.79009045 10.23828125 18.69921875 C10.246353 19.56762894 10.25442474 20.43603912 10.26274109 21.33076477 C10.27658651 23.17255658 10.28730661 25.01437409 10.29516602 26.85620117 C10.31232671 29.65919479 10.35620146 32.46099279 10.40039062 35.26367188 C10.41052233 37.05467884 10.41903694 38.84569583 10.42578125 40.63671875 C10.44328934 41.46926682 10.46079742 42.30181488 10.47883606 43.15959167 C10.45756702 48.93089537 9.30822687 52.2464573 6 57 C1.98499315 60.44143444 -2.81009237 61.28544492 -8 61 C-13.30666409 59.42108058 -17.04063679 56.73498114 -20 52 C-21.36282367 48.12448804 -21.1978472 44.07556698 -21.23828125 40.015625 C-21.246353 39.24120056 -21.25442474 38.46677612 -21.26274109 37.66888428 C-21.27654712 36.03155736 -21.28728478 34.39420209 -21.29516602 32.75683594 C-21.30667308 31.09268686 -21.32710492 29.42857432 -21.35668945 27.76464844 C-21.39962021 25.34805467 -21.41556971 22.93255402 -21.42578125 20.515625 C-21.44328934 19.78200745 -21.46079742 19.04838989 -21.47883606 18.2925415 C-21.45605546 12.78551772 -20.02350052 8.61517743 -17 4 C-12.01192931 -0.86641043 -6.60486227 -0.82813258 0 0 Z " fill="#000000" transform="translate(190,35)"/>
</svg>
